# xmcd CD database file
#
# Track frame offsets:
#	150
#	11908
#	25262
#	38798
#	52673
#	66779
#	82815
#	98801
#	113504
#	129415
#	145288
#	159971
#	170232
#	184972
#	198231
#	210636
#	221910
#	230928
#	244448
#	255711
#	266267
#	276540
#	284981
#	297978
#	310355
#
# Disc length: 4283 seconds
#
# Revision: 0
# Processed by: cddbd v1.5.2PL0 Copyright (c) Steve Scherf et al.
# Submitted via: CDex 1.51
#
DISCID=8610b919
DTITLE=Ben Liebrand - Jaarmix 2007 Disc1
DYEAR=2007
DGENRE=Blues
TTITLE0=JAYMEN - Ooh La Lishious
TTITLE1=PETER GELDERBLOM - Waiting 4
TTITLE2=ERIC PRYDZ vs FLOYD - Proper Education
TTITLE3=JES - Ghost
TTITLE4=SANDER VAN DOORN ft. MC PRIME - By Any Demand
TTITLE5=BOOTY LUV - Shine
TTITLE6=KING AMIR - Samir's Theme
TTITLE7=Erick E - The Beat Is Rockin' 
TTITLE8=FUNKERMAN and FEDDE LE GRAND pres. 'F to the F' - Wheels In Motion
TTITLE9=FUNKERMAN - Speed It Up
TTITLE10=Booty Luv - Boogie 2 Nite 
TTITLE11=BOBBY BURNS - From Holland
TTITLE12=DR. KUCHO - Lies To Yourself
TTITLE13=DR. KUCHO and GREGOR SALTO - Love Is My Game
TTITLE14=Fedde Le Grand - Put Your Hands Up 4 Detroit
TTITLE15=ALEX GAUDINO ft. CRYSTAL WATERS - Destination Calabria		
TTITLE16=BOB SINCLAR - Sound of Freedom
TTITLE17=YVES LAROCK - Rise Up
TTITLE18=MASTERS AT WORK	 - Work (2007 remix)
TTITLE19=YANOU ft. LIZ - King Of My Castle
TTITLE20=FEDDE LE GRAND pres. FLAMINGO PROJECT - Take no shhhhh
TTITLE21=IDA CORR - Let Me Think About It
TTITLE22=DAVID VENDETTA - Love To Love You Baby
TTITLE23=SUNFREAKZ ft. ANDREA BRITTON - Counting Down the Days
TTITLE24=SEAMUS HAJI ft. KAYJAY - Last Night A DJ Saved My Life
EXTD=YEAR: 2007
EXTT0=
EXTT1=
EXTT2=
EXTT3=
EXTT4=
EXTT5=
EXTT6=
EXTT7=
EXTT8=
EXTT9=
EXTT10=
EXTT11=
EXTT12=
EXTT13=
EXTT14=
EXTT15=
EXTT16=
EXTT17=
EXTT18=
EXTT19=
EXTT20=
EXTT21=
EXTT22=
EXTT23=
EXTT24=
PLAYORDER=
